<svg xmlns="http://www.w3.org/2000/svg" viewBox="0 0 177.92 56.06"><defs><style>.cls-1{fill:#fff;}</style></defs><g id="レイヤー_2" data-name="レイヤー 2"><g id="レイヤー_1-2" data-name="レイヤー 1"><path class="cls-1" d="M143.9,43h2.46a1,1,0,0,1,1,1V55a1,1,0,0,1-1,1H143.9a1,1,0,0,1-1-1V44A1,1,0,0,1,143.9,43Z"/><path class="cls-1" d="M150.76,43h2.35a.7.7,0,0,1,.56.29l2.11,2.95a.69.69,0,0,0,1.25-.41V43.71a.69.69,0,0,1,.69-.69h2.67a.69.69,0,0,1,.69.69V55.26a.69.69,0,0,1-.69.69H158a.7.7,0,0,1-.56-.29s-3.34-3.19-3.34-2.52v2.12a.69.69,0,0,1-.69.69h-2.67a.69.69,0,0,1-.69-.69V43.71A.69.69,0,0,1,150.76,43Z"/><path class="cls-1" d="M163,49.61a6.51,6.51,0,0,1,.52-2.66A6.11,6.11,0,0,1,167,43.62a6.93,6.93,0,0,1,2.5-.45,7.52,7.52,0,0,1,1.87.21,8.34,8.34,0,0,1,1.41.46,7.09,7.09,0,0,1,.78.39.48.48,0,0,1,.17.65l-1.45,2.55a.47.47,0,0,1-.67.17l-.2-.12-.06,0a7,7,0,0,0-.72-.27,3.22,3.22,0,0,0-1-.14,2.77,2.77,0,0,0-1.05.2,2.84,2.84,0,0,0-.84.55,2.55,2.55,0,0,0-.56.82,2.57,2.57,0,0,0,0,2,2.61,2.61,0,0,0,.58.82,2.64,2.64,0,0,0,.86.55,2.78,2.78,0,0,0,1.09.2,3.76,3.76,0,0,0,1-.14,4.34,4.34,0,0,0,.77-.33l.24-.15a.47.47,0,0,1,.68.15l1.44,2.55a.48.48,0,0,1-.15.64,5.18,5.18,0,0,1-.81.45,10.63,10.63,0,0,1-1.42.48,7.24,7.24,0,0,1-1.9.22,7.38,7.38,0,0,1-2.65-.47,6.16,6.16,0,0,1-2.09-1.32,5.9,5.9,0,0,1-1.38-2A6.81,6.81,0,0,1,163,49.61Z"/><circle class="cls-1" cx="176.39" cy="54.42" r="1.53"/><path class="cls-1" d="M0,25a1.59,1.59,0,0,1,1.81-1.66l2.26.3a17.59,17.59,0,0,0,2.15.26,21.7,21.7,0,0,0,2.42,0c1.43-.08,2.12-.65,2.06-1.71A1.78,1.78,0,0,0,10,21a19.14,19.14,0,0,0-1.73-1.32c-.7-.47-1.45-1-2.24-1.59a15.37,15.37,0,0,1-2.27-2A11.19,11.19,0,0,1,1.93,13.4,8.76,8.76,0,0,1,1.09,10,9,9,0,0,1,1.68,6,7.78,7.78,0,0,1,3.73,3.1a9.84,9.84,0,0,1,3.2-1.88,13.42,13.42,0,0,1,4-.8c.75,0,1.46-.31,2.77-.39A19.79,19.79,0,0,1,16.5.09c.4,0,1.47,0,2.42,0A1.59,1.59,0,0,1,20.5,1.71l0,6a1.58,1.58,0,0,1-1.63,1.58h0c-.26,0-2.52.07-2.83.06H15l-.7.07a4.61,4.61,0,0,0-.79.15,1.63,1.63,0,0,0-.64.37.81.81,0,0,0-.25.67c0,.25.24.55.69.9s1,.76,1.61,1.23,1.33,1,2.1,1.62a13.48,13.48,0,0,1,2.13,2.14,12.91,12.91,0,0,1,1.7,2.77,9.48,9.48,0,0,1,.82,3.52,11.33,11.33,0,0,1-.45,3.89,8.06,8.06,0,0,1-1.87,3.24A9.71,9.71,0,0,1,16,32.21a15.11,15.11,0,0,1-5.06,1,30.54,30.54,0,0,1-3.31,0c-1,0-1.92-.14-2.71-.25-.61-.07-2.09-.26-3.22-.43A1.58,1.58,0,0,1,.33,31.1Z"/><path class="cls-1" d="M25.25,24.89a15.11,15.11,0,0,1,0-6.22,14.18,14.18,0,0,1,2.29-5.19,14,14,0,0,1,4.11-3.8A15.61,15.61,0,0,1,37.15,7.6a17.94,17.94,0,0,1,4.3-.34,20.18,20.18,0,0,1,3.38.44,16.77,16.77,0,0,1,1.91.55,1.1,1.1,0,0,1,.68,1.41L45.23,16a1.1,1.1,0,0,1-1.44.67l-.51-.19-.15,0a13,13,0,0,0-1.73-.31,7.46,7.46,0,0,0-2.28.1,6.08,6.08,0,0,0-3.94,2.51,5.74,5.74,0,0,0-.92,2.08,5.81,5.81,0,0,0,0,2.35,5.54,5.54,0,0,0,.9,2.18A5.88,5.88,0,0,0,36.79,27a6,6,0,0,0,2.19.88,6.34,6.34,0,0,0,2.53,0,7.74,7.74,0,0,0,2.31-.78A9.16,9.16,0,0,0,45.43,26c.16-.14.32-.28.47-.43a1.07,1.07,0,0,1,1.59,0l4.35,5.15a1.11,1.11,0,0,1-.07,1.52,13.26,13.26,0,0,1-1.64,1.35,22.14,22.14,0,0,1-3,1.69,17.09,17.09,0,0,1-4.19,1.3,16.71,16.71,0,0,1-6.18.06,14.42,14.42,0,0,1-5.3-2.08,13.8,13.8,0,0,1-4-4A15.38,15.38,0,0,1,25.25,24.89Z"/><path class="cls-1" d="M56.4.06h7.49a1.24,1.24,0,0,1,1.24,1.25V12.42a1.25,1.25,0,0,0,1.25,1.25h3.08a1.25,1.25,0,0,0,1.25-1.25V7.25A1.25,1.25,0,0,1,72,6h7.53a1.25,1.25,0,0,1,1.25,1.25V36a1.24,1.24,0,0,1-1.25,1.24H72A1.24,1.24,0,0,1,70.71,36V24a1.25,1.25,0,0,0-1.25-1.25H66.38A1.25,1.25,0,0,0,65.13,24v6.11a1.23,1.23,0,0,1-1.24,1.24H56.4a1.24,1.24,0,0,1-1.24-1.24V1.31A1.25,1.25,0,0,1,56.4.06Z"/><path class="cls-1" d="M119.57.06h7.67a1.38,1.38,0,0,1,1.37,1.37V19.76A1.37,1.37,0,0,0,130,21.13h8.86a1.36,1.36,0,0,1,1.36,1.36v7.45a1.36,1.36,0,0,1-1.36,1.36H119.57a1.36,1.36,0,0,1-1.36-1.36V1.43A1.37,1.37,0,0,1,119.57.06Z"/><path class="cls-1" d="M161.2,6h-6.62a1,1,0,0,0-.92.59l-11.81,29a.94.94,0,0,0,.92,1.28h8.31a1,1,0,0,0,.93-.6l.85-2.09h0L157,23.59a1,1,0,0,1,1.85,0l4.94,10.53h0l.85,2.09a1,1,0,0,0,.93.6h9.18a1,1,0,0,0,.93-1.28L162.12,6.59A1,1,0,0,0,161.2,6Z"/><path class="cls-1" d="M99.4,7.6a14.87,14.87,0,1,0,14.86,14.87A14.86,14.86,0,0,0,99.4,7.6Zm0,18.6a3.74,3.74,0,1,1,3.74-3.73A3.73,3.73,0,0,1,99.4,26.2Z"/></g></g></svg>